# xmcd
#
# Track frame offsets:
#	182
#	32505
#	53437
#	65815
#	85052
#	103742
#	116995
#	132500
#	159265
#	195730
#	203657
#	227145
#	246477
#	274070
#	295630
#
# Disc length: 4270 seconds
#
# Revision: 0
# Processed by: cddbd v1.5.2PL0 Copyright (c) Steve Scherf et al.
# Submitted via: EasyCDDAExtractor 16.0.8.2
#
DISCID=d710ac0f
DTITLE=Συλλογικός δίσκος - The Classic Experience 4.2
DYEAR=1993
DGENRE=Κλασική
TTITLE0=Άνευ ερμηνευτού - Violin Concerto [Tchaikovsky]
TTITLE1=Άνευ ερμηνευτού - March from "Karelia Suite"[Sibelius]
TTITLE2=Χορωδία - Anvil Chorus [Verdi]
TTITLE3=Άνευ ερμηνευτού - Hungarian March [Berlioz]
TTITLE4=Άνευ ερμηνευτού - Classical Symphony [Prokofiev]
TTITLE5=Άνευ ερμηνευτού - Waltz from "Coppelia" [Delibes]
TTITLE6=Ghena Dimitrova - La Wally [Catalani]
TTITLE7=Άνευ ερμηνευτού - Hungarian Rhapsody [Liszt]
TTITLE8=Άνευ ερμηνευτού - Piano Concerto [Grieg]
TTITLE9=Άνευ ερμηνευτού - Turkish March [Beethoven]
TTITLE10=Άνευ ερμηνευτού - The Flying Dutchman [Wagner]
TTITLE11=Άνευ ερμηνευτού - Dance of the Comedians [Wagner]
TTITLE12=Άνευ ερμηνευτού - Force of Destiny [Verdi]
TTITLE13=Άνευ ερμηνευτού - Young Person's Guide to the Orchestra [Britten]
TTITLE14=Άνευ ερμηνευτού - The Great Gate of Kiev [Mussorgsky]
EXTD=
EXTT0=
EXTT1=
EXTT2=
EXTT3=
EXTT4=
EXTT5=
EXTT6=
EXTT7=
EXTT8=
EXTT9=
EXTT10=
EXTT11=
EXTT12=
EXTT13=
EXTT14=
PLAYORDER=
